<svg xmlns="http://www.w3.org/2000/svg" xmlns:ev="http://www.w3.org/2001/xml-events" xmlns:xlink="http://www.w3.org/1999/xlink" width="200" height="200" baseProfile="full" version="1.1"><circle cx="3.342" cy="1.362" r="1"/><circle cx="30.468" cy="2.354" r="1"/><circle cx="45.1" cy="1.487" r="1"/><circle cx="57.922" cy="1.262" r="1"/><circle cx="72.582" cy=".111" r="1"/><circle cx="82.541" cy="1.268" r="1"/><circle cx="96.123" cy="2.207" r="1"/><circle cx="104.345" cy="1.81" r="1"/><circle cx="118.789" cy="1.573" r="1"/><circle cx="128.559" cy="2.867" r="1"/><circle cx="151.919" cy="1.87" r="1"/><circle cx="182.273" cy="2.561" r="1"/><circle cx="196.961" cy=".358" r="1"/><circle cx="5.919" cy="6.941" r="1"/><circle cx="11.932" cy="5.711" r="1"/><circle cx="20.436" cy="4.67" r="1"/><circle cx="28.157" cy="6.963" r="1"/><circle cx="35.357" cy="6.702" r="1"/><circle cx="50.595" cy="4.331" r="1"/><circle cx="55.729" cy="6.004" r="1"/><circle cx="64.515" cy="3.651" r="1"/><circle cx="89.836" cy="4.767" r="1"/><circle cx="98.781" cy="6.841" r="1"/><circle cx="109.911" cy="4.109" r="1"/><circle cx="137.026" cy="3.912" r="1"/><circle cx="144.641" cy="5.541" r="1"/><circle cx="158.118" cy="4.418" r="1"/><circle cx="169.719" cy="6.033" r="1"/><circle cx="177.026" cy="3.698" r="1"/><circle cx="189.228" cy="5.235" r="1"/><circle cx="41.576" cy="7.102" r="1"/><circle cx="46.023" cy="10.342" r="1"/><circle cx="66.661" cy="9.979" r="1"/><circle cx="72.436" cy="7.501" r="1"/><circle cx="77.85" cy="8.935" r="1"/><circle cx="93.481" cy="9.758" r="1"/><circle cx="105.793" cy="7.902" r="1"/><circle cx="122.851" cy="8.065" r="1"/><circle cx="136.974" cy="8.976" r="1"/><circle cx="183.267" cy="9.72" r="1"/><circle cx="194.533" cy="7.119" r="1"/><circle cx="199.585" cy="9.152" r="1"/><circle cx="8.804" cy="12.813" r="1"/><circle cx="17.194" cy="14.029" r="1"/><circle cx="22.984" cy="12.559" r="1"/><circle cx="30.836" cy="13.804" r="1"/><circle cx="36.291" cy="12.606" r="1"/><circle cx="52.821" cy="11.049" r="1"/><circle cx="57.857" cy="11.004" r="1"/><circle cx="86.748" cy="13.554" r="1"/><circle cx="113.411" cy="10.737" r="1"/><circle cx="133.012" cy="13.008" r="1"/><circle cx="140.529" cy="13.23" r="1"/><circle cx="155.919" cy="10.799" r="1"/><circle cx="164.502" cy="14.028" r="1"/><circle cx="176.052" cy="11.352" r="1"/><circle cx="192.57" cy="13.781" r="1"/><circle cx="3.216" cy="16.851" r="1"/><circle cx="12.58" cy="16.226" r="1"/><circle cx="21.029" cy="17.65" r="1"/><circle cx="41.197" cy="14.592" r="1"/><circle cx="49.679" cy="17.141" r="1"/><circle cx="66.755" cy="15.322" r="1"/><circle cx="71.976" cy="14.255" r="1"/><circle cx="80.123" cy="17.375" r="1"/><circle cx="92.382" cy="14.974" r="1"/><circle cx="102.1" cy="15.347" r="1"/><circle cx="110.575" cy="14.929" r="1"/><circle cx="117.612" cy="14.238" r="1"/><circle cx="127.687" cy="14.939" r="1"/><circle cx="137.557" cy="17.485" r="1"/><circle cx="147.472" cy="14.638" r="1"/><circle cx="159.559" cy="17.071" r="1"/><circle cx="187.605" cy="16.053" r="1"/><circle cx="197.612" cy="16.032" r="1"/><circle cx="43.952" cy="19.544" r="1"/><circle cx="56.105" cy="18.216" r="1"/><circle cx="62.99" cy="18.781" r="1"/><circle cx="68.239" cy="20.226" r="1"/><circle cx="86.362" cy="21.112" r="1"/><circle cx="91.597" cy="20.232" r="1"/><circle cx="97.92" cy="20.315" r="1"/><circle cx="104.731" cy="19.735" r="1"/><circle cx="115.125" cy="20.163" r="1"/><circle cx="142.689" cy="20.146" r="1"/><circle cx="148.009" cy="21.004" r="1"/><circle cx="152.712" cy="18.342" r="1"/><circle cx="164.986" cy="20.624" r="1"/><circle cx="179.724" cy="19.373" r="1"/><circle cx="191.606" cy="20.259" r="1"/><circle cx=".284" cy="21.644" r="1"/><circle cx="9.617" cy="22.353" r="1"/><circle cx="18.056" cy="21.758" r="1"/><circle cx="27.296" cy="21.231" r="1"/><circle cx="34.633" cy="21.313" r="1"/><circle cx="47.988" cy="22.65" r="1"/><circle cx="73.344" cy="22.107" r="1"/><circle cx="122.765" cy="22.341" r="1"/><circle cx="130.241" cy="23.101" r="1"/><circle cx="170.792" cy="21.575" r="1"/><circle cx="184.873" cy="22.773" r="1"/><circle cx="25.781" cy="27.95" r="1"/><circle cx="31.31" cy="26.766" r="1"/><circle cx="42.664" cy="27.369" r="1"/><circle cx="56.479" cy="28.043" r="1"/><circle cx="64.395" cy="25.483" r="1"/><circle cx="81.224" cy="25.597" r="1"/><circle cx="93.951" cy="27.342" r="1"/><circle cx="102.776" cy="26.998" r="1"/><circle cx="112.703" cy="25.2" r="1"/><circle cx="138.115" cy="25.723" r="1"/><circle cx="158.287" cy="27.201" r="1"/><circle cx="170.638" cy="26.94" r="1"/><circle cx="177.237" cy="26.881" r="1"/><circle cx="190.98" cy="26.874" r="1"/><circle cx="197.938" cy="25.251" r="1"/><circle cx="5.499" cy="29.947" r="1"/><circle cx="19.515" cy="30" r="1"/><circle cx="36.845" cy="28.558" r="1"/><circle cx="51.465" cy="30.3" r="1"/><circle cx="67.84" cy="30.008" r="1"/><circle cx="75.526" cy="31.409" r="1"/><circle cx="85.047" cy="30.272" r="1"/><circle cx="90.964" cy="31.45" r="1"/><circle cx="107.815" cy="28.69" r="1"/><circle cx="118.768" cy="29.65" r="1"/><circle cx="131.692" cy="31.435" r="1"/><circle cx="138.075" cy="31.129" r="1"/><circle cx="143.292" cy="29.967" r="1"/><circle cx="163.468" cy="29.16" r="1"/><circle cx="183.392" cy="28.796" r="1"/><circle cx="195.488" cy="29.823" r="1"/><circle cx="12.276" cy="33.526" r="1"/><circle cx="27.726" cy="34.672" r="1"/><circle cx="34.358" cy="33.792" r="1"/><circle cx="96.666" cy="34.141" r="1"/><circle cx="115.282" cy="33.881" r="1"/><circle cx="124.055" cy="33.538" r="1"/><circle cx="152.816" cy="32.008" r="1"/><circle cx="158.841" cy="33.459" r="1"/><circle cx="169.335" cy="33.047" r="1"/><circle cx="176.308" cy="35.055" r="1"/><circle cx="182.555" cy="35.006" r="1"/><circle cx="190.024" cy="33.74" r="1"/><circle cx="199.513" cy="33.771" r="1"/><circle cx="5.77" cy="35.535" r="1"/><circle cx="14.537" cy="38.106" r="1"/><circle cx="23.006" cy="37.156" r="1"/><circle cx="41.405" cy="38.267" r="1"/><circle cx="55.877" cy="37.393" r="1"/><circle cx="64.151" cy="37.236" r="1"/><circle cx="84.873" cy="37.54" r="1"/><circle cx="102.542" cy="36.915" r="1"/><circle cx="110.321" cy="38.644" r="1"/><circle cx="120.121" cy="36.852" r="1"/><circle cx="130.811" cy="37.666" r="1"/><circle cx="142.695" cy="37.517" r="1"/><circle cx="155.534" cy="37.85" r="1"/><circle cx="165.617" cy="38.366" r="1"/><circle cx="191.951" cy="38.805" r="1"/><circle cx="7.876" cy="40.313" r="1"/><circle cx="29.626" cy="41.608" r="1"/><circle cx="69.315" cy="39.269" r="1"/><circle cx="74.772" cy="39.771" r="1"/><circle cx="91.07" cy="39.359" r="1"/><circle cx="98.046" cy="39.784" r="1"/><circle cx="137.86" cy="39.071" r="1"/><circle cx="148.916" cy="39.17" r="1"/><circle cx="175.983" cy="42.303" r="1"/><circle cx="197.728" cy="40.963" r="1"/><circle cx="23.124" cy="43.644" r="1"/><circle cx="35.876" cy="42.499" r="1"/><circle cx="53.337" cy="42.57" r="1"/><circle cx="61.664" cy="45.295" r="1"/><circle cx="78.401" cy="45.029" r="1"/><circle cx="85.528" cy="44.911" r="1"/><circle cx="99.225" cy="45.59" r="1"/><circle cx="104.245" cy="43.083" r="1"/><circle cx="113.287" cy="45.024" r="1"/><circle cx="120.771" cy="43.732" r="1"/><circle cx="143.244" cy="44.215" r="1"/><circle cx="153.055" cy="44.454" r="1"/><circle cx="158.102" cy="42.768" r="1"/><circle cx="163.235" cy="43.611" r="1"/><circle cx="182.947" cy="43.888" r="1"/><circle cx="1.795" cy="46.575" r="1"/><circle cx="8.898" cy="48.175" r="1"/><circle cx="15.187" cy="46.62" r="1"/><circle cx="23.593" cy="49.008" r="1"/><circle cx="30.369" cy="46.965" r="1"/><circle cx="49.412" cy="48.839" r="1"/><circle cx="65.533" cy="48.887" r="1"/><circle cx="71.415" cy="47.092" r="1"/><circle cx="91.529" cy="46.929" r="1"/><circle cx="108.641" cy="47.272" r="1"/><circle cx="131.536" cy="46.889" r="1"/><circle cx="136.407" cy="48.38" r="1"/><circle cx="155.115" cy="49.052" r="1"/><circle cx="160.288" cy="49.014" r="1"/><circle cx="171.36" cy="48.447" r="1"/><circle cx="192.424" cy="46.563" r="1"/><circle cx="17.286" cy="52.771" r="1"/><circle cx="32.231" cy="52.689" r="1"/><circle cx="43.784" cy="50.873" r="1"/><circle cx="56.927" cy="51.484" r="1"/><circle cx="74.051" cy="51.35" r="1"/><circle cx="100.221" cy="50.665" r="1"/><circle cx="112.473" cy="51.038" r="1"/><circle cx="120.717" cy="51.894" r="1"/><circle cx="126.523" cy="52.812" r="1"/><circle cx="132.114" cy="52.416" r="1"/><circle cx="139.09" cy="52.966" r="1"/><circle cx="147.912" cy="49.498" r="1"/><circle cx="166.837" cy="51.219" r="1"/><circle cx="180.364" cy="52.618" r="1"/><circle cx="186.613" cy="51.933" r="1"/><circle cx="195.499" cy="51.125" r="1"/><circle cx="25.25" cy="53.731" r="1"/><circle cx="46.035" cy="55.42" r="1"/><circle cx="53.721" cy="56.527" r="1"/><circle cx="61.24" cy="56.106" r="1"/><circle cx="67.252" cy="54.88" r="1"/><circle cx="81.993" cy="53.724" r="1"/><circle cx="89.416" cy="54.067" r="1"/><circle cx="94.705" cy="54.697" r="1"/><circle cx="106.269" cy="53.273" r="1"/><circle cx="191.53" cy="55.77" r="1"/><circle cx="198.464" cy="55.759" r="1"/><circle cx="10.82" cy="57.29" r="1"/><circle cx="24.087" cy="59.797" r="1"/><circle cx="30.311" cy="57.789" r="1"/><circle cx="40.194" cy="58.621" r="1"/><circle cx="75.118" cy="57.479" r="1"/><circle cx="98.146" cy="59.784" r="1"/><circle cx="103.248" cy="59.554" r="1"/><circle cx="114.999" cy="57.909" r="1"/><circle cx="127.111" cy="58.352" r="1"/><circle cx="150.649" cy="57.698" r="1"/><circle cx="160.079" cy="57.833" r="1"/><circle cx="165.613" cy="58.093" r="1"/><circle cx="173.609" cy="57.139" r="1"/><circle cx="179.592" cy="58.762" r="1"/><circle cx="187.795" cy="59.506" r="1"/><circle cx="17.976" cy="60.721" r="1"/><circle cx="35.673" cy="61.478" r="1"/><circle cx="58.775" cy="60.58" r="1"/><circle cx="68.269" cy="60.561" r="1"/><circle cx="82.335" cy="61.66" r="1"/><circle cx="91.788" cy="61.175" r="1"/><circle cx="109.121" cy="60.448" r="1"/><circle cx="120.096" cy="62.787" r="1"/><circle cx="125.153" cy="63.023" r="1"/><circle cx="132.368" cy="63.219" r="1"/><circle cx="142.028" cy="60.743" r="1"/><circle cx="156.783" cy="63.182" r="1"/><circle cx="194.283" cy="62.573" r="1"/><circle cx="7.871" cy="64.905" r="1"/><circle cx="14.285" cy="65.222" r="1"/><circle cx="20.019" cy="66.811" r="1"/><circle cx="31.233" cy="64.848" r="1"/><circle cx="40.992" cy="65.763" r="1"/><circle cx="48.669" cy="64.325" r="1"/><circle cx="54.073" cy="65.007" r="1"/><circle cx="59.272" cy="65.667" r="1"/><circle cx="65.235" cy="66.11" r="1"/><circle cx="77.909" cy="67.082" r="1"/><circle cx="86.413" cy="65.588" r="1"/><circle cx="99.611" cy="65.993" r="1"/><circle cx="105.798" cy="64.921" r="1"/><circle cx="148.994" cy="63.948" r="1"/><circle cx="163.245" cy="65.56" r="1"/><circle cx="170.159" cy="65.048" r="1"/><circle cx="181.538" cy="64.764" r="1"/><circle cx="13.129" cy="70.508" r="1"/><circle cx="25.858" cy="69.307" r="1"/><circle cx="70.554" cy="67.85" r="1"/><circle cx="92.748" cy="69.837" r="1"/><circle cx="108.01" cy="69.632" r="1"/><circle cx="120.367" cy="68.293" r="1"/><circle cx="125.571" cy="70.502" r="1"/><circle cx="137.861" cy="67.193" r="1"/><circle cx="145.221" cy="67.474" r="1"/><circle cx="155.62" cy="68.192" r="1"/><circle cx="163.931" cy="70.65" r="1"/><circle cx="177.29" cy="68.294" r="1"/><circle cx="188.287" cy="68.561" r="1"/><circle cx="193.757" cy="69.9" r="1"/><circle cx="3.082" cy="71.58" r="1"/><circle cx="38.677" cy="71.442" r="1"/><circle cx="49.238" cy="73.666" r="1"/><circle cx="53.734" cy="71.146" r="1"/><circle cx="58.858" cy="73.05" r="1"/><circle cx="70.788" cy="73.151" r="1"/><circle cx="82.882" cy="72.067" r="1"/><circle cx="87.908" cy="72.431" r="1"/><circle cx="101.073" cy="71.094" r="1"/><circle cx="139.688" cy="74.183" r="1"/><circle cx="149.517" cy="74.074" r="1"/><circle cx="168.829" cy="73.334" r="1"/><circle cx="178.589" cy="73.851" r="1"/><circle cx="12.187" cy="77.194" r="1"/><circle cx="17.271" cy="76.428" r="1"/><circle cx="23.771" cy="74.505" r="1"/><circle cx="31.833" cy="75.634" r="1"/><circle cx="41.578" cy="76.289" r="1"/><circle cx="54.782" cy="77.716" r="1"/><circle cx="66.017" cy="75.486" r="1"/><circle cx="75.666" cy="74.346" r="1"/><circle cx="85.066" cy="76.964" r="1"/><circle cx="94.78" cy="75.704" r="1"/><circle cx="107.607" cy="76.185" r="1"/><circle cx="117.52" cy="75.603" r="1"/><circle cx="125.698" cy="77.419" r="1"/><circle cx="133.431" cy="75.123" r="1"/><circle cx="162.214" cy="75.765" r="1"/><circle cx="184.588" cy="75.07" r="1"/><circle cx="194.587" cy="76.729" r="1"/><circle cx="3.983" cy="80.503" r="1"/><circle cx="36.227" cy="79.558" r="1"/><circle cx="48.364" cy="78.879" r="1"/><circle cx="69.623" cy="79.559" r="1"/><circle cx="111.101" cy="80.461" r="1"/><circle cx="156.449" cy="78.875" r="1"/><circle cx="170.51" cy="80.559" r="1"/><circle cx="180.73" cy="81.028" r="1"/><circle cx="189.439" cy="77.92" r="1"/><circle cx="10.268" cy="83.623" r="1"/><circle cx="23.028" cy="82.622" r="1"/><circle cx="30.735" cy="82.202" r="1"/><circle cx="42.135" cy="84.324" r="1"/><circle cx="48.672" cy="83.897" r="1"/><circle cx="62.305" cy="82.125" r="1"/><circle cx="79.031" cy="81.493" r="1"/><circle cx="84.108" cy="83.111" r="1"/><circle cx="96.636" cy="81.351" r="1"/><circle cx="122.862" cy="81.602" r="1"/><circle cx="130.589" cy="83.552" r="1"/><circle cx="135.712" cy="81.956" r="1"/><circle cx="141.514" cy="82.432" r="1"/><circle cx="151.321" cy="82.292" r="1"/><circle cx="160.362" cy="82.409" r="1"/><circle cx="175.648" cy="81.434" r="1"/><circle cx="187.502" cy="83.449" r="1"/><circle cx="197.93" cy="81.743" r="1"/><circle cx="5.154" cy="85.493" r="1"/><circle cx="16.921" cy="86.137" r="1"/><circle cx="53.555" cy="86.64" r="1"/><circle cx="66.274" cy="85.434" r="1"/><circle cx="73.602" cy="85.2" r="1"/><circle cx="90.687" cy="86.006" r="1"/><circle cx="105.186" cy="84.896" r="1"/><circle cx="110.771" cy="87.942" r="1"/><circle cx="116.228" cy="84.946" r="1"/><circle cx="136.977" cy="87.907" r="1"/><circle cx="146.785" cy="85.097" r="1"/><circle cx="155.87" cy="87.149" r="1"/><circle cx="164.941" cy="87.615" r="1"/><circle cx="177.542" cy="86.078" r="1"/><circle cx="1.615" cy="90.947" r="1"/><circle cx="8.803" cy="90.153" r="1"/><circle cx="15.686" cy="91.048" r="1"/><circle cx="21.092" cy="90.27" r="1"/><circle cx="27.954" cy="89.721" r="1"/><circle cx="36.4" cy="88.858" r="1"/><circle cx="42.655" cy="90.123" r="1"/><circle cx="59.585" cy="90.913" r="1"/><circle cx="76.222" cy="90.379" r="1"/><circle cx="81.39" cy="90.111" r="1"/><circle cx="99.176" cy="89.423" r="1"/><circle cx="124.456" cy="88.491" r="1"/><circle cx="129.654" cy="90.254" r="1"/><circle cx="152.406" cy="91.218" r="1"/><circle cx="170.118" cy="91.831" r="1"/><circle cx="185.339" cy="89.095" r="1"/><circle cx="195.177" cy="90.271" r="1"/><circle cx="34.112" cy="93.87" r="1"/><circle cx="50.345" cy="93.158" r="1"/><circle cx="55.06" cy="95.39" r="1"/><circle cx="66.885" cy="92.718" r="1"/><circle cx="88.625" cy="91.992" r="1"/><circle cx="115.527" cy="92.793" r="1"/><circle cx="125.341" cy="93.934" r="1"/><circle cx="134.904" cy="92.552" r="1"/><circle cx="143.426" cy="92.525" r="1"/><circle cx="157.766" cy="93.99" r="1"/><circle cx="163.448" cy="93.087" r="1"/><circle cx="180.982" cy="95.321" r="1"/><circle cx="186.342" cy="94.819" r="1"/><circle cx="5.178" cy="96.206" r="1"/><circle cx="12.519" cy="97.585" r="1"/><circle cx="21.846" cy="96.982" r="1"/><circle cx="29.173" cy="98.654" r="1"/><circle cx="40.48" cy="95.807" r="1"/><circle cx="45.091" cy="97.915" r="1"/><circle cx="63.098" cy="96.383" r="1"/><circle cx="74.605" cy="96.339" r="1"/><circle cx="90.071" cy="97.048" r="1"/><circle cx="95.854" cy="97.505" r="1"/><circle cx="101.239" cy="97.67" r="1"/><circle cx="106.134" cy="95.946" r="1"/><circle cx="118.817" cy="98.984" r="1"/><circle cx="130.479" cy="95.947" r="1"/><circle cx="134.707" cy="98.856" r="1"/><circle cx="139.486" cy="97.149" r="1"/><circle cx="148.488" cy="98.698" r="1"/><circle cx="169.72" cy="98.65" r="1"/><circle cx="176.091" cy="97.421" r="1"/><circle cx="192.672" cy="97.993" r="1"/><circle cx="199.5" cy="95.551" r="1"/><circle cx=".982" cy="100.851" r="1"/><circle cx="6.23" cy="101.2" r="1"/><circle cx="35.193" cy="99.774" r="1"/><circle cx="50.733" cy="101.727" r="1"/><circle cx="58.836" cy="99.71" r="1"/><circle cx="71.359" cy="101.168" r="1"/><circle cx="85.484" cy="102.437" r="1"/><circle cx="105.291" cy="101.761" r="1"/><circle cx="124.592" cy="99.426" r="1"/><circle cx="130.308" cy="102.353" r="1"/><circle cx="142.96" cy="102.079" r="1"/><circle cx="153.29" cy="100.91" r="1"/><circle cx="159.751" cy="101.251" r="1"/><circle cx="182.124" cy="102.314" r="1"/><circle cx="187.866" cy="100.367" r="1"/><circle cx="197.456" cy="101.28" r="1"/><circle cx="12.933" cy="105.71" r="1"/><circle cx="21.377" cy="104.076" r="1"/><circle cx="41.95" cy="103.524" r="1"/><circle cx="62.169" cy="103.501" r="1"/><circle cx="76.812" cy="104.631" r="1"/><circle cx="94.95" cy="104.047" r="1"/><circle cx="101.968" cy="105.845" r="1"/><circle cx="137.064" cy="103.605" r="1"/><circle cx="174.256" cy="104.352" r="1"/><circle cx="191.483" cy="104.622" r="1"/><circle cx="1.618" cy="108.214" r="1"/><circle cx="6.76" cy="107.112" r="1"/><circle cx="31.796" cy="107.282" r="1"/><circle cx="38.405" cy="107.504" r="1"/><circle cx="46.061" cy="107.323" r="1"/><circle cx="50.869" cy="108.98" r="1"/><circle cx="57.837" cy="107.74" r="1"/><circle cx="67.254" cy="106.517" r="1"/><circle cx="72.545" cy="107.473" r="1"/><circle cx="81.419" cy="108.793" r="1"/><circle cx="90.632" cy="108.466" r="1"/><circle cx="111.401" cy="108.047" r="1"/><circle cx="118.577" cy="106.39" r="1"/><circle cx="126.126" cy="107.686" r="1"/><circle cx="140.237" cy="107.924" r="1"/><circle cx="146.328" cy="107.729" r="1"/><circle cx="151.87" cy="107.041" r="1"/><circle cx="161.815" cy="107.083" r="1"/><circle cx="183.249" cy="107.444" r="1"/><circle cx="18.506" cy="110.811" r="1"/><circle cx="25.313" cy="111.035" r="1"/><circle cx="43.406" cy="113.063" r="1"/><circle cx="96.151" cy="112.426" r="1"/><circle cx="101.483" cy="111.975" r="1"/><circle cx="116.21" cy="112.196" r="1"/><circle cx="134.014" cy="110.314" r="1"/><circle cx="156.669" cy="112.315" r="1"/><circle cx="164.922" cy="112.465" r="1"/><circle cx="169.927" cy="109.602" r="1"/><circle cx="175.317" cy="111.292" r="1"/><circle cx="187.676" cy="110.104" r="1"/><circle cx="196.445" cy="109.77" r="1"/><circle cx="2.119" cy="113.998" r="1"/><circle cx="10.103" cy="113.304" r="1"/><circle cx="22.881" cy="116.481" r="1"/><circle cx="30.864" cy="113.819" r="1"/><circle cx="38.095" cy="115.247" r="1"/><circle cx="47.975" cy="115.228" r="1"/><circle cx="55.263" cy="114.713" r="1"/><circle cx="67.244" cy="113.733" r="1"/><circle cx="74.207" cy="115.661" r="1"/><circle cx="87.356" cy="115.307" r="1"/><circle cx="108.846" cy="114.777" r="1"/><circle cx="126.034" cy="113.393" r="1"/><circle cx="138.093" cy="115.669" r="1"/><circle cx="144.7" cy="113.229" r="1"/><circle cx="183.839" cy="114.837" r="1"/><circle cx="190.641" cy="114.152" r="1"/><circle cx="10.641" cy="118.531" r="1"/><circle cx="29.845" cy="118.766" r="1"/><circle cx="40.3" cy="120.032" r="1"/><circle cx="49.955" cy="120.036" r="1"/><circle cx="61.359" cy="116.887" r="1"/><circle cx="81.196" cy="117.636" r="1"/><circle cx="119.555" cy="119.483" r="1"/><circle cx="130.417" cy="116.688" r="1"/><circle cx="151.173" cy="116.834" r="1"/><circle cx="157.392" cy="117.979" r="1"/><circle cx="168.313" cy="117.79" r="1"/><circle cx="180.214" cy="118.57" r="1"/><circle cx="198.053" cy="119.156" r="1"/><circle cx="5.007" cy="122.218" r="1"/><circle cx="17.169" cy="123.256" r="1"/><circle cx="24.517" cy="122.908" r="1"/><circle cx="58.016" cy="121.976" r="1"/><circle cx="66.74" cy="120.982" r="1"/><circle cx="74.415" cy="123.374" r="1"/><circle cx="91.537" cy="120.271" r="1"/><circle cx="98.924" cy="121.212" r="1"/><circle cx="106.106" cy="121.781" r="1"/><circle cx="124.632" cy="123.234" r="1"/><circle cx="143.749" cy="122.749" r="1"/><circle cx="152.89" cy="122.874" r="1"/><circle cx="161.255" cy="123.503" r="1"/><circle cx="173.927" cy="120.444" r="1"/><circle cx="190.86" cy="120.475" r="1"/><circle cx="10.713" cy="124.118" r="1"/><circle cx="30.645" cy="124.064" r="1"/><circle cx="38.175" cy="124.862" r="1"/><circle cx="47.541" cy="125.285" r="1"/><circle cx="52.706" cy="124.914" r="1"/><circle cx="88.899" cy="125.08" r="1"/><circle cx="111.29" cy="124.606" r="1"/><circle cx="117.146" cy="126.989" r="1"/><circle cx="132.469" cy="125.708" r="1"/><circle cx="137.704" cy="124.566" r="1"/><circle cx="166.692" cy="126.769" r="1"/><circle cx="173.511" cy="126.269" r="1"/><circle cx="187.886" cy="125.234" r="1"/><circle cx="194.959" cy="126.711" r="1"/><circle cx="199.883" cy="124.192" r="1"/><circle cx="5.99" cy="130.165" r="1"/><circle cx="25.913" cy="128.731" r="1"/><circle cx="40.345" cy="129.944" r="1"/><circle cx="59.741" cy="128.699" r="1"/><circle cx="68.55" cy="127.985" r="1"/><circle cx="74.257" cy="129.742" r="1"/><circle cx="82.78" cy="128.878" r="1"/><circle cx="92.133" cy="130.729" r="1"/><circle cx="99.347" cy="127.827" r="1"/><circle cx="105.246" cy="129.128" r="1"/><circle cx="124.827" cy="129.513" r="1"/><circle cx="138.23" cy="129.615" r="1"/><circle cx="148.15" cy="129.756" r="1"/><circle cx="177.589" cy="129.953" r="1"/><circle cx="1.322" cy="132.182" r="1"/><circle cx="12.269" cy="131.019" r="1"/><circle cx="20.428" cy="132.842" r="1"/><circle cx="33.171" cy="130.965" r="1"/><circle cx="44.799" cy="133.817" r="1"/><circle cx="54.068" cy="131.023" r="1"/><circle cx="83.026" cy="134.169" r="1"/><circle cx="113.674" cy="130.907" r="1"/><circle cx="119.422" cy="132.196" r="1"/><circle cx="130.102" cy="131.383" r="1"/><circle cx="143.01" cy="131.538" r="1"/><circle cx="151.886" cy="133.5" r="1"/><circle cx="158.283" cy="131.411" r="1"/><circle cx="170.973" cy="131.624" r="1"/><circle cx="185.412" cy="132.625" r="1"/><circle cx="191.985" cy="131.004" r="1"/><circle cx="197.798" cy="132.439" r="1"/><circle cx="4.053" cy="137.131" r="1"/><circle cx="11.538" cy="136.899" r="1"/><circle cx="26.469" cy="135.407" r="1"/><circle cx="34.379" cy="136.112" r="1"/><circle cx="54.971" cy="137.251" r="1"/><circle cx="60.485" cy="134.529" r="1"/><circle cx="71.945" cy="136.106" r="1"/><circle cx="88.073" cy="137.097" r="1"/><circle cx="98.488" cy="134.957" r="1"/><circle cx="106.538" cy="136.093" r="1"/><circle cx="135.575" cy="134.853" r="1"/><circle cx="145.975" cy="137.552" r="1"/><circle cx="167.506" cy="137.417" r="1"/><circle cx="175.3" cy="137.884" r="1"/><circle cx="181.249" cy="136.658" r="1"/><circle cx="16.6" cy="139.489" r="1"/><circle cx="40.964" cy="139.724" r="1"/><circle cx="66.367" cy="139.605" r="1"/><circle cx="93.28" cy="140.567" r="1"/><circle cx="109.672" cy="141.168" r="1"/><circle cx="127.489" cy="137.892" r="1"/><circle cx="132.379" cy="138.958" r="1"/><circle cx="140.865" cy="138.886" r="1"/><circle cx="151.141" cy="140.495" r="1"/><circle cx="186.872" cy="139.576" r="1"/><circle cx="192.832" cy="139.033" r="1"/><circle cx="197.887" cy="139.385" r="1"/><circle cx="10.783" cy="142.709" r="1"/><circle cx="19.795" cy="144.713" r="1"/><circle cx="28.412" cy="142.713" r="1"/><circle cx="36.636" cy="142.854" r="1"/><circle cx="71.741" cy="142.162" r="1"/><circle cx="79.695" cy="142.921" r="1"/><circle cx="101.421" cy="142.35" r="1"/><circle cx="114.394" cy="144.454" r="1"/><circle cx="121.44" cy="141.481" r="1"/><circle cx="129.422" cy="144.675" r="1"/><circle cx="142.703" cy="143.823" r="1"/><circle cx="159.004" cy="142.224" r="1"/><circle cx="164.79" cy="143.985" r="1"/><circle cx="181.02" cy="143.298" r="1"/><circle cx="194.771" cy="144.123" r="1"/><circle cx="46.631" cy="146.095" r="1"/><circle cx="52.798" cy="147.432" r="1"/><circle cx="59.803" cy="147.481" r="1"/><circle cx="67.34" cy="147.699" r="1"/><circle cx="90.378" cy="146.662" r="1"/><circle cx="95.73" cy="148.319" r="1"/><circle cx="105.625" cy="148.277" r="1"/><circle cx="110.74" cy="148.192" r="1"/><circle cx="136.078" cy="147.437" r="1"/><circle cx="150.071" cy="146.441" r="1"/><circle cx="155.614" cy="146.391" r="1"/><circle cx="171.875" cy="145.019" r="1"/><circle cx="177.223" cy="146.848" r="1"/><circle cx="15.232" cy="149.399" r="1"/><circle cx="22.199" cy="149.759" r="1"/><circle cx="31.218" cy="149.119" r="1"/><circle cx="44.125" cy="150.5" r="1"/><circle cx="76.165" cy="150.253" r="1"/><circle cx="81.621" cy="151.558" r="1"/><circle cx="116.256" cy="149.356" r="1"/><circle cx="122.331" cy="151.061" r="1"/><circle cx="162.582" cy="151.95" r="1"/><circle cx="181.329" cy="150.733" r="1"/><circle cx="186.821" cy="148.909" r="1"/><circle cx="6.13" cy="153.11" r="1"/><circle cx="35.821" cy="155.365" r="1"/><circle cx="41.335" cy="155.035" r="1"/><circle cx="52.266" cy="153.824" r="1"/><circle cx="60.64" cy="153.784" r="1"/><circle cx="68.26" cy="154.683" r="1"/><circle cx="89.732" cy="152.16" r="1"/><circle cx="94.791" cy="154.672" r="1"/><circle cx="101.333" cy="153.722" r="1"/><circle cx="112.865" cy="154.284" r="1"/><circle cx="129.631" cy="152.242" r="1"/><circle cx="136.115" cy="152.792" r="1"/><circle cx="143.53" cy="152.132" r="1"/><circle cx="156.022" cy="153.354" r="1"/><circle cx="168.146" cy="154.218" r="1"/><circle cx="173.366" cy="154.995" r="1"/><circle cx="195.021" cy="154.598" r="1"/><circle cx="10.922" cy="157.007" r="1"/><circle cx="18.437" cy="156.289" r="1"/><circle cx="47" cy="158.841" r="1"/><circle cx="83.84" cy="157.233" r="1"/><circle cx="107.961" cy="156.108" r="1"/><circle cx="129.203" cy="157.698" r="1"/><circle cx="151.422" cy="155.781" r="1"/><circle cx="180.24" cy="158.08" r="1"/><circle cx="186.111" cy="157.657" r="1"/><circle cx="191.168" cy="158.052" r="1"/><circle cx="2.341" cy="160.121" r="1"/><circle cx="13.508" cy="162.489" r="1"/><circle cx="18.995" cy="162.338" r="1"/><circle cx="25.43" cy="161.694" r="1"/><circle cx="40.306" cy="160.491" r="1"/><circle cx="53.856" cy="160.616" r="1"/><circle cx="61.087" cy="160.114" r="1"/><circle cx="76.088" cy="159.754" r="1"/><circle cx="89.798" cy="159.699" r="1"/><circle cx="95.254" cy="161.37" r="1"/><circle cx="112.094" cy="160.931" r="1"/><circle cx="117.495" cy="160.804" r="1"/><circle cx="124.3" cy="159.884" r="1"/><circle cx="134.349" cy="161.313" r="1"/><circle cx="143.677" cy="160.352" r="1"/><circle cx="160.166" cy="159.252" r="1"/><circle cx="168.649" cy="159.519" r="1"/><circle cx="197.963" cy="161.565" r="1"/><circle cx="32.038" cy="162.661" r="1"/><circle cx="49.819" cy="163.759" r="1"/><circle cx="68.67" cy="163.521" r="1"/><circle cx="75.291" cy="165.975" r="1"/><circle cx="83.841" cy="162.959" r="1"/><circle cx="100.138" cy="165.651" r="1"/><circle cx="104.806" cy="163.056" r="1"/><circle cx="131.128" cy="165.347" r="1"/><circle cx="148.866" cy="164.523" r="1"/><circle cx="155.342" cy="163.528" r="1"/><circle cx="160.628" cy="166.111" r="1"/><circle cx="165.073" cy="163.561" r="1"/><circle cx="172.384" cy="162.948" r="1"/><circle cx="182.58" cy="165.454" r="1"/><circle cx="187.797" cy="164.538" r="1"/><circle cx="3.544" cy="169.008" r="1"/><circle cx="10.954" cy="166.983" r="1"/><circle cx="19.919" cy="168.461" r="1"/><circle cx="27.64" cy="166.437" r="1"/><circle cx="36.224" cy="168.394" r="1"/><circle cx="44.704" cy="168.538" r="1"/><circle cx="53.977" cy="169.007" r="1"/><circle cx="61.731" cy="169.132" r="1"/><circle cx="90.008" cy="168.348" r="1"/><circle cx="121.92" cy="168.76" r="1"/><circle cx="136.344" cy="168.895" r="1"/><circle cx="143.169" cy="167.379" r="1"/><circle cx="176.825" cy="168.259" r="1"/><circle cx="193.349" cy="167.948" r="1"/><circle cx="30.15" cy="172.02" r="1"/><circle cx="68.911" cy="173.173" r="1"/><circle cx="79.109" cy="171.481" r="1"/><circle cx="84.812" cy="170.449" r="1"/><circle cx="98.337" cy="173.146" r="1"/><circle cx="106.552" cy="173.022" r="1"/><circle cx="110.979" cy="170.531" r="1"/><circle cx="130.529" cy="170.723" r="1"/><circle cx="141.018" cy="171.941" r="1"/><circle cx="149.538" cy="169.901" r="1"/><circle cx="167.469" cy="170.181" r="1"/><circle cx="173.5" cy="172.265" r="1"/><circle cx="182.627" cy="172.665" r="1"/><circle cx="9.356" cy="175.114" r="1"/><circle cx="14.71" cy="176.661" r="1"/><circle cx="23.221" cy="174.485" r="1"/><circle cx="41.111" cy="176.063" r="1"/><circle cx="46.923" cy="174.307" r="1"/><circle cx="54.635" cy="174.154" r="1"/><circle cx="64.586" cy="175.928" r="1"/><circle cx="77.957" cy="176.484" r="1"/><circle cx="116.336" cy="173.719" r="1"/><circle cx="124.502" cy="173.676" r="1"/><circle cx="145.26" cy="175.113" r="1"/><circle cx="155.576" cy="173.641" r="1"/><circle cx="162.443" cy="174.203" r="1"/><circle cx="190.856" cy="174.309" r="1"/><circle cx="196.503" cy="175.404" r="1"/><circle cx="34.663" cy="176.952" r="1"/><circle cx="51.053" cy="179.582" r="1"/><circle cx="57.106" cy="178.721" r="1"/><circle cx="70.189" cy="179.62" r="1"/><circle cx="85.547" cy="177.399" r="1"/><circle cx="92.682" cy="178.536" r="1"/><circle cx="102.244" cy="176.779" r="1"/><circle cx="113.139" cy="179.759" r="1"/><circle cx="120.041" cy="178.77" r="1"/><circle cx="137.93" cy="176.855" r="1"/><circle cx="150.613" cy="179.267" r="1"/><circle cx="157.173" cy="178.548" r="1"/><circle cx="171.208" cy="178.724" r="1"/><circle cx="177.725" cy="179.951" r="1"/><circle cx="187.981" cy="179.463" r="1"/><circle cx="11.564" cy="180.906" r="1"/><circle cx="24.084" cy="183.564" r="1"/><circle cx="30.492" cy="180.863" r="1"/><circle cx="38.692" cy="182.144" r="1"/><circle cx="44.462" cy="183.162" r="1"/><circle cx="77.319" cy="183.591" r="1"/><circle cx="99.13" cy="182.24" r="1"/><circle cx="105.117" cy="180.937" r="1"/><circle cx="117.248" cy="183.659" r="1"/><circle cx="128.974" cy="180.694" r="1"/><circle cx="137.151" cy="182.199" r="1"/><circle cx="145.417" cy="181.796" r="1"/><circle cx="160.367" cy="183.081" r="1"/><circle cx="165.256" cy="181.055" r="1"/><circle cx="182.098" cy="183.554" r="1"/><circle cx="195.162" cy="182.923" r="1"/><circle cx="1.444" cy="185.905" r="1"/><circle cx="16.893" cy="185.229" r="1"/><circle cx="30.88" cy="186.221" r="1"/><circle cx="52.964" cy="187.079" r="1"/><circle cx="83.872" cy="184.405" r="1"/><circle cx="123.199" cy="183.907" r="1"/><circle cx="176.195" cy="186.744" r="1"/><circle cx="186.395" cy="186.648" r="1"/><circle cx="8.605" cy="187.418" r="1"/><circle cx="37.219" cy="189.723" r="1"/><circle cx="43.784" cy="188.314" r="1"/><circle cx="62.698" cy="189.162" r="1"/><circle cx="68.862" cy="187.833" r="1"/><circle cx="91.828" cy="187.39" r="1"/><circle cx="96.894" cy="189.046" r="1"/><circle cx="102.178" cy="187.79" r="1"/><circle cx="111.287" cy="187.953" r="1"/><circle cx="121.983" cy="189.47" r="1"/><circle cx="127.229" cy="189.907" r="1"/><circle cx="135.322" cy="188.531" r="1"/><circle cx="140.585" cy="190.123" r="1"/><circle cx="151.346" cy="188.017" r="1"/><circle cx="160.934" cy="188.177" r="1"/><circle cx="168.107" cy="188.181" r="1"/><circle cx="190.526" cy="189.863" r="1"/><circle cx="6.216" cy="191.881" r="1"/><circle cx="11.664" cy="193.7" r="1"/><circle cx="18.311" cy="192.014" r="1"/><circle cx="25.114" cy="192.295" r="1"/><circle cx="56.841" cy="192.589" r="1"/><circle cx="67.903" cy="193.133" r="1"/><circle cx="79.539" cy="193.685" r="1"/><circle cx="87.623" cy="192.12" r="1"/><circle cx="104.189" cy="193.041" r="1"/><circle cx="116.293" cy="191.707" r="1"/><circle cx="131.603" cy="193.424" r="1"/><circle cx="145.595" cy="192.381" r="1"/><circle cx="151.13" cy="193.106" r="1"/><circle cx="156.552" cy="193.391" r="1"/><circle cx="173.152" cy="193.837" r="1"/><circle cx="180.405" cy="193.035" r="1"/><circle cx="196.814" cy="192.083" r="1"/><circle cx="19.495" cy="197.529" r="1"/><circle cx="31.036" cy="195.446" r="1"/><circle cx="40.595" cy="197.079" r="1"/><circle cx="47.237" cy="194.521" r="1"/><circle cx="62.528" cy="196.859" r="1"/><circle cx="74.912" cy="196.422" r="1"/><circle cx="86.339" cy="197.599" r="1"/><circle cx="95.506" cy="195.106" r="1"/><circle cx="111.823" cy="195.798" r="1"/><circle cx="138.198" cy="196.195" r="1"/><circle cx="165.09" cy="197.207" r="1"/><circle cx="187.79" cy="196.833" r="1"/><circle cx="14.841" cy="199.957" r="1"/><circle cx="25.085" cy="198.095" r="1"/><circle cx="35.021" cy="198.616" r="1"/><circle cx="46.651" cy="199.782" r="1"/><circle cx="53.206" cy="198.932" r="1"/><circle cx="92.952" cy="199.696" r="1"/><circle cx="123.702" cy="198.617" r="1"/><circle cx="131.582" cy="198.722" r="1"/><circle cx="147.044" cy="199.237" r="1"/><circle cx="154.281" cy="199.929" r="1"/><circle cx="160.346" cy="199.962" r="1"/></svg>